<?xml version="1.0" encoding="UTF-8"?>
<svg id="_레이어_2" data-name="레이어 2" xmlns="http://www.w3.org/2000/svg" viewBox="0 0 546.62 49.54">
  <defs>
    <style>
      .cls-1 {
        fill: #2e2828;
      }
    </style>
  </defs>
  <g id="_레이어_1-2" data-name="레이어 1">
    <g>
      <path class="cls-1" d="m14.74,14.21c.7,0,1.39.1,2.06.29.67.19,1.26.51,1.75.96.5.45.9,1.03,1.2,1.75.3.72.46,1.61.46,2.66,0,1.44-.26,2.73-.79,3.86-.53,1.14-1.21,2.11-2.04,2.93-.83.82-1.76,1.44-2.78,1.87-1.02.43-2.05.65-3.07.65-.83,0-1.62-.11-2.38-.34-.75-.22-1.42-.57-1.99-1.03-.58-.46-1.03-1.06-1.37-1.78-.34-.72-.5-1.58-.5-2.57,0-1.44.23-2.73.7-3.86.46-1.14,1.12-2.1,1.97-2.9.85-.8,1.85-1.42,3-1.85,1.15-.43,2.42-.65,3.79-.65Zm3.41,5.62c0-1.22-.32-2.1-.96-2.66-.64-.56-1.44-.84-2.4-.84-1.06,0-2.04.17-2.95.5s-1.7.82-2.35,1.44c-.66.62-1.18,1.38-1.56,2.28-.38.9-.58,1.9-.58,3.02,0,.64.12,1.18.36,1.63.24.45.55.82.94,1.13.38.3.82.53,1.3.67s.96.22,1.44.22c.96,0,1.85-.2,2.66-.6.82-.4,1.53-.94,2.14-1.61s1.09-1.46,1.44-2.35c.35-.9.53-1.84.53-2.83Zm6.29,20.74c1.41-2.34,2.58-4.93,3.5-7.78.93-2.85,1.67-5.78,2.23-8.81.56-3.02.96-6.06,1.2-9.12.24-3.06.38-5.96.41-8.71l2.16-.05c-.03,2.82-.15,5.76-.36,8.83-.21,3.07-.59,6.14-1.15,9.22-.56,3.07-1.31,6.1-2.26,9.07-.94,2.98-2.18,5.79-3.72,8.45l-2.02-1.1Z"/>
      <path class="cls-1" d="m43.87,13.73c2.21-.77,4.3-1.15,6.29-1.15,2.56,0,4.57.5,6.02,1.51,1.46,1.01,2.18,2.52,2.18,4.54,0,1.82-.42,3.49-1.27,4.99-.85,1.5-1.93,2.87-3.24,4.1-1.31,1.23-2.76,2.36-4.34,3.38-1.58,1.02-3.1,1.97-4.54,2.83l-1.3-1.92c1.18-.7,2.5-1.51,3.96-2.42s2.82-1.94,4.08-3.07c1.26-1.14,2.33-2.37,3.19-3.7.86-1.33,1.3-2.76,1.3-4.3,0-1.22-.49-2.16-1.46-2.83s-2.46-1.01-4.44-1.01c-.93,0-1.88.1-2.86.29-.98.19-1.96.45-2.95.77l-.62-2.02Zm16.37,7.01c1.31-.1,2.77-.14,4.37-.14s3.01.1,4.22.29l-.19,2.02c-.58-.1-1.22-.16-1.94-.19-.72-.03-1.46-.05-2.21-.05s-1.5.02-2.26.05c-.75.03-1.43.06-2.04.1l.05-2.06Zm3.5,19.82c1.41-2.34,2.58-4.93,3.53-7.78.94-2.85,1.69-5.78,2.23-8.81.54-3.02.94-6.06,1.18-9.12.24-3.06.38-5.96.41-8.71l2.16-.05c-.03,2.82-.15,5.76-.36,8.83-.21,3.07-.59,6.14-1.15,9.22-.56,3.07-1.31,6.1-2.26,9.07-.94,2.98-2.18,5.79-3.72,8.45l-2.02-1.1Z"/>
      <path class="cls-1" d="m111.26,23.42c-1.12.67-2.39,1.26-3.82,1.75-1.42.5-2.91.9-4.46,1.22-1.55.32-3.14.56-4.75.72-1.62.16-3.18.24-4.68.24-1.02,0-2.19-.02-3.5-.07-1.31-.05-2.66-.16-4.03-.34-1.38-.18-2.74-.42-4.1-.72-1.36-.3-2.6-.7-3.72-1.18l1.06-1.87c1.06.42,2.2.76,3.43,1.03,1.23.27,2.48.5,3.74.67,1.26.18,2.5.3,3.72.38,1.22.08,2.3.12,3.26.12,3.2,0,6.22-.28,9.05-.84,2.83-.56,5.38-1.5,7.66-2.81l1.15,1.68Zm-20.02,8.45c-1.18,1.47-2.14,2.82-2.88,4.06-.74,1.23-1.1,2.6-1.1,4.1,0,1.22.5,1.99,1.49,2.33.99.34,2.38.5,4.18.5.58,0,1.26-.02,2.06-.07.8-.05,1.63-.13,2.5-.24.86-.11,1.74-.26,2.62-.43.88-.18,1.69-.41,2.42-.7l.58,2.11c-.64.26-1.42.48-2.33.67s-1.85.34-2.81.46c-.96.11-1.89.2-2.78.26-.9.06-1.65.1-2.26.1-1.18,0-2.26-.07-3.22-.22-.96-.14-1.78-.4-2.47-.77-.69-.37-1.22-.87-1.58-1.51-.37-.64-.55-1.47-.55-2.5,0-1.73.43-3.38,1.3-4.97.86-1.58,1.9-3.1,3.12-4.54l1.73,1.34Zm13.49-14.88c-1.31.54-2.69.98-4.13,1.3s-2.83.48-4.18.48c-1.18,0-2.27-.09-3.26-.26-.99-.18-1.84-.47-2.54-.89-.7-.42-1.25-.97-1.63-1.66-.38-.69-.58-1.54-.58-2.57,0-1.22.25-2.59.74-4.13.5-1.54,1.16-2.94,1.99-4.22l1.87,1.01c-.77,1.25-1.37,2.53-1.8,3.84-.43,1.31-.65,2.48-.65,3.5,0,1.18.5,2.03,1.51,2.54,1.01.51,2.42.77,4.25.77,1.22,0,2.48-.14,3.79-.41,1.31-.27,2.58-.66,3.79-1.18l.82,1.87Z"/>
      <path class="cls-1" d="m129.17,29.42c.77-.22,1.66-.59,2.69-1.1,1.02-.51,2.09-1.09,3.19-1.73,1.1-.64,2.19-1.34,3.26-2.09,1.07-.75,2.03-1.5,2.88-2.23.85-.74,1.54-1.43,2.06-2.09.53-.66.79-1.22.79-1.7,0-.54-.22-.94-.67-1.18-.45-.24-1.18-.36-2.21-.36-.7,0-1.34.02-1.9.07-.56.05-1.13.14-1.7.26-.58.13-1.2.3-1.87.53-.67.22-1.47.51-2.4.86l-.91-1.87c.9-.32,1.7-.61,2.42-.86.72-.26,1.42-.46,2.09-.6s1.36-.26,2.06-.34c.7-.08,1.52-.12,2.45-.12,1.38,0,2.51.26,3.41.77.9.51,1.34,1.42,1.34,2.74,0,.67-.28,1.42-.84,2.26-.56.83-1.3,1.69-2.23,2.57-.93.88-1.98,1.75-3.17,2.62-1.18.86-2.38,1.67-3.6,2.42-1.22.75-2.41,1.41-3.58,1.97-1.17.56-2.2.97-3.1,1.22l-.48-2.02Zm16.61-17.38c-.42-.06-.94-.12-1.58-.17s-1.33-.1-2.06-.14c-.74-.05-1.48-.08-2.23-.1-.75-.02-1.46-.02-2.14-.02-.58,0-1.22.02-1.92.05-.7.03-1.2.06-1.49.1v-2.11c.26-.03.74-.06,1.44-.07.7-.02,1.33-.02,1.87-.02.67,0,1.4,0,2.18.02.78.02,1.55.04,2.3.07.75.03,1.46.07,2.11.12.66.05,1.21.1,1.66.17l-.14,2.11Zm-3.55,13.39c.48.58.94,1.13,1.39,1.66.45.53.89,1.07,1.32,1.63.43.56.88,1.14,1.34,1.75.46.61.95,1.3,1.46,2.06l-1.73,1.06c-.93-1.31-1.83-2.5-2.71-3.58-.88-1.07-1.82-2.22-2.81-3.43l1.73-1.15Zm7.78-4.85c2.53-.19,4.98-.1,7.34.29l-.19,2.02c-1.18-.16-2.37-.26-3.55-.31-1.18-.05-2.4-.02-3.65.07l.05-2.06Zm2.26,19.97c1.41-2.34,2.58-4.93,3.53-7.78.94-2.85,1.69-5.78,2.23-8.81.54-3.02.94-6.06,1.18-9.12.24-3.06.38-5.96.41-8.71l2.16-.05c-.03,2.82-.15,5.76-.36,8.83-.21,3.07-.59,6.14-1.15,9.22-.56,3.07-1.31,6.1-2.26,9.07-.94,2.98-2.18,5.79-3.72,8.45l-2.02-1.1Z"/>
      <path class="cls-1" d="m199.78,21.6c-1.12.67-2.39,1.26-3.82,1.78-1.42.51-2.91.93-4.46,1.25-1.55.32-3.14.56-4.75.72-1.62.16-3.18.24-4.68.24-1.02,0-2.19-.02-3.5-.07-1.31-.05-2.66-.16-4.03-.34-1.38-.18-2.74-.42-4.1-.72-1.36-.3-2.6-.7-3.72-1.18l1.06-1.87c1.06.42,2.2.76,3.43,1.03,1.23.27,2.48.5,3.74.67,1.26.18,2.5.3,3.72.38,1.22.08,2.3.12,3.26.12,3.2,0,6.22-.28,9.05-.84,2.83-.56,5.38-1.5,7.66-2.81l1.15,1.63Zm-29.14,24.29c.8-2.3,1.5-4.67,2.11-7.1.61-2.43,1.1-4.86,1.49-7.3l2.11.34c-.16,1.15-.36,2.35-.6,3.6-.24,1.25-.52,2.5-.84,3.77-.32,1.26-.66,2.5-1.01,3.72-.35,1.22-.74,2.35-1.15,3.41l-2.11-.43Zm6.48-10.66c1.06-1.34,2.21-2.38,3.46-3.1,1.25-.72,2.56-1.08,3.94-1.08.54,0,1.09.07,1.63.22.54.14,1.03.38,1.46.7.43.32.78.71,1.03,1.18.26.46.38,1.03.38,1.7s-.17,1.42-.5,2.14-.78,1.42-1.32,2.09c-.54.67-1.17,1.33-1.87,1.97-.7.64-1.41,1.23-2.11,1.78,1.63-.19,3.4-.26,5.3-.22,1.9.05,3.72.25,5.45.6l-.38,2.02c-.64-.13-1.22-.24-1.75-.34s-1.06-.18-1.58-.24c-.53-.06-1.08-.1-1.66-.12-.58-.02-1.22-.02-1.92-.02-2.46,0-4.99.35-7.58,1.06l-1.15-1.44c.86-.51,1.82-1.13,2.86-1.85,1.04-.72,2.02-1.49,2.93-2.3.91-.82,1.67-1.66,2.28-2.52.61-.86.91-1.68.91-2.45,0-.61-.23-1.06-.7-1.37-.46-.3-1.03-.46-1.7-.46-1.15,0-2.18.31-3.07.94-.9.62-1.81,1.53-2.74,2.71l-1.58-1.58Zm9.65-30.29c.77,0,1.51.07,2.23.22.72.14,1.36.38,1.92.72.56.34,1,.78,1.32,1.32.32.54.48,1.23.48,2.06,0,1.22-.26,2.29-.79,3.22-.53.93-1.2,1.7-2.02,2.33s-1.71,1.1-2.69,1.42c-.98.32-1.91.48-2.81.48-.74,0-1.45-.09-2.14-.26-.69-.18-1.3-.46-1.85-.84-.54-.38-.98-.86-1.32-1.44-.34-.58-.5-1.26-.5-2.06,0-1.15.24-2.18.72-3.07.48-.9,1.1-1.64,1.87-2.23.77-.59,1.64-1.05,2.62-1.37.98-.32,1.96-.48,2.95-.48Zm-2.3,9.74c.8,0,1.58-.13,2.33-.38.75-.26,1.42-.62,1.99-1.08.58-.46,1.04-1.02,1.39-1.66.35-.64.53-1.33.53-2.06,0-.93-.36-1.58-1.08-1.97-.72-.38-1.67-.58-2.86-.58-.77,0-1.52.12-2.26.36-.74.24-1.39.58-1.97,1.01-.58.43-1.04.95-1.39,1.56-.35.61-.53,1.3-.53,2.06,0,.93.38,1.62,1.13,2.06.75.45,1.66.67,2.71.67Z"/>
      <path class="cls-1" d="m215.86,14.21c.7,0,1.39.1,2.06.29.67.19,1.26.51,1.75.96.5.45.9,1.03,1.2,1.75.3.72.46,1.61.46,2.66,0,1.44-.26,2.73-.77,3.86-.51,1.14-1.18,2.11-2.02,2.93-.83.82-1.77,1.44-2.81,1.87-1.04.43-2.07.65-3.1.65-.83,0-1.62-.11-2.38-.34-.75-.22-1.42-.57-1.99-1.03-.58-.46-1.03-1.06-1.37-1.78-.34-.72-.5-1.58-.5-2.57,0-1.44.24-2.73.72-3.86.48-1.14,1.14-2.1,1.97-2.9.83-.8,1.83-1.42,3-1.85,1.17-.43,2.42-.65,3.77-.65Zm3.41,5.62c0-1.22-.32-2.1-.96-2.66-.64-.56-1.44-.84-2.4-.84-1.06,0-2.03.17-2.93.5-.9.34-1.67.82-2.33,1.44-.66.62-1.18,1.38-1.56,2.28-.38.9-.58,1.9-.58,3.02,0,1.25.42,2.17,1.25,2.76.83.59,1.74.89,2.74.89s1.85-.2,2.66-.6c.82-.4,1.53-.94,2.14-1.61.61-.67,1.09-1.46,1.44-2.35.35-.9.53-1.84.53-2.83Zm3.36,1.3c1.12-.1,2.14-.14,3.07-.14s1.95.1,3.07.29l-.24,2.11c-1.06-.19-2.01-.28-2.86-.26-.85.02-1.83.07-2.95.17l-.1-2.16Zm.62,17.23c1.41-2.34,2.61-4.62,3.6-6.86.99-2.24,1.8-4.51,2.42-6.82s1.08-4.68,1.37-7.13c.29-2.45.45-5.06.48-7.85l2.16-.05c-.03,2.88-.18,5.56-.46,8.04-.27,2.48-.71,4.9-1.32,7.25-.61,2.35-1.42,4.7-2.42,7.06-1.01,2.35-2.28,4.84-3.82,7.46l-2.02-1.1Zm7.2,3.6c1.41-2.34,2.62-4.95,3.65-7.85,1.02-2.9,1.87-5.89,2.54-8.98.67-3.09,1.18-6.18,1.51-9.29.34-3.1.52-6.05.55-8.83l2.16-.05c-.03,2.85-.2,5.83-.5,8.95-.3,3.12-.79,6.25-1.46,9.38-.67,3.14-1.53,6.22-2.57,9.26-1.04,3.04-2.33,5.89-3.86,8.54l-2.02-1.15Z"/>
      <path class="cls-1" d="m272.5,30.24c.42-.93.74-1.9.96-2.93.22-1.02.42-2.08.58-3.17l2.02.1c-.03.58-.1,1.15-.19,1.73-.1.58-.22,1.17-.38,1.78-.29,1.41-.74,2.77-1.37,4.08-.62,1.31-1.42,2.48-2.4,3.5-.98,1.02-2.17,1.84-3.58,2.45-1.41.61-3.04.91-4.9.91-.8,0-1.54-.08-2.23-.24-.69-.16-1.3-.4-1.82-.72-.53-.32-.94-.73-1.25-1.22-.3-.5-.46-1.08-.46-1.75,0-.96.26-1.76.77-2.4.51-.64,1.18-1.16,2.02-1.56.83-.4,1.77-.69,2.81-.86,1.04-.18,2.1-.26,3.19-.26.64,0,1.38.02,2.23.05.85.03,1.69.08,2.52.14l-.67,2.06c-.7-.06-1.43-.12-2.18-.17-.75-.05-1.45-.07-2.09-.07-.77,0-1.54.06-2.3.17-.77.11-1.46.29-2.06.53-.61.24-1.1.55-1.49.94s-.58.86-.58,1.44c0,.61.32,1.07.96,1.39.64.32,1.49.48,2.54.48,2.37,0,4.31-.56,5.83-1.68,1.52-1.12,2.7-2.69,3.53-4.7Zm-1.44-23.81c-.32,1.02-.62,2.17-.91,3.43-.29,1.26-.54,2.57-.74,3.91-.21,1.34-.38,2.67-.5,3.98-.13,1.31-.19,2.53-.19,3.65l-2.21.05c.03-1.41.12-2.83.26-4.27s.33-2.83.55-4.18c.22-1.34.48-2.62.77-3.82s.59-2.26.91-3.19l2.06.43Zm9.41,8.45c-.42-.1-.81-.17-1.18-.22-.37-.05-.78-.07-1.22-.07-1.82,0-3.3.36-4.42,1.08-1.12.72-1.68,1.64-1.68,2.76,0,.74.32,1.26.96,1.56.64.3,1.44.46,2.4.46,1.09,0,2.01-.22,2.76-.65.75-.43,1.37-1.01,1.85-1.73.48-.72.86-1.56,1.13-2.52.27-.96.49-1.96.65-3,.16-1.04.28-2.09.36-3.14.08-1.06.17-2.06.26-3.02l2.06.1c-.06,1.15-.14,2.35-.24,3.6-.1,1.25-.25,2.46-.46,3.62-.21,1.17-.5,2.28-.89,3.34-.38,1.06-.9,1.98-1.56,2.78-.66.8-1.46,1.43-2.42,1.9-.96.46-2.13.7-3.5.7-.74,0-1.43-.06-2.09-.17-.66-.11-1.24-.32-1.75-.62-.51-.3-.92-.71-1.22-1.22-.3-.51-.46-1.17-.46-1.97s.2-1.6.6-2.3c.4-.7.97-1.32,1.7-1.85.74-.53,1.6-.94,2.59-1.22.99-.29,2.1-.43,3.31-.43.22,0,.62,0,1.18.02.56.02,1.13.1,1.7.26l-.43,1.97Zm8.5,21.98c-.8-.61-1.77-1.16-2.9-1.66-1.14-.5-2.34-.93-3.62-1.3-1.28-.37-2.57-.67-3.86-.91-1.3-.24-2.5-.41-3.62-.5l.77-2.02c1.15.1,2.37.26,3.65.48,1.28.22,2.55.53,3.82.91,1.26.38,2.5.83,3.7,1.34,1.2.51,2.28,1.1,3.24,1.78l-1.15,1.87Z"/>
      <path class="cls-1" d="m307.49,14.21c.7,0,1.39.1,2.06.29.67.19,1.26.51,1.75.96.5.45.9,1.03,1.2,1.75.3.72.46,1.61.46,2.66,0,1.44-.26,2.73-.79,3.86-.53,1.14-1.21,2.11-2.04,2.93-.83.82-1.76,1.44-2.78,1.87-1.02.43-2.05.65-3.07.65-.83,0-1.62-.11-2.38-.34-.75-.22-1.42-.57-1.99-1.03-.58-.46-1.03-1.06-1.37-1.78-.34-.72-.5-1.58-.5-2.57,0-1.44.23-2.73.7-3.86.46-1.14,1.12-2.1,1.97-2.9.85-.8,1.85-1.42,3-1.85,1.15-.43,2.42-.65,3.79-.65Zm3.41,5.62c0-1.22-.32-2.1-.96-2.66-.64-.56-1.44-.84-2.4-.84-1.06,0-2.04.17-2.95.5s-1.7.82-2.35,1.44c-.66.62-1.18,1.38-1.56,2.28-.38.9-.58,1.9-.58,3.02,0,.64.12,1.18.36,1.63.24.45.55.82.94,1.13.38.3.82.53,1.3.67s.96.22,1.44.22c.96,0,1.85-.2,2.66-.6.82-.4,1.53-.94,2.14-1.61s1.09-1.46,1.44-2.35c.35-.9.53-1.84.53-2.83Zm2.64,4.32c1.34-.06,2.75-.08,4.22-.05,1.47.03,2.82.14,4.03.34l-.14,2.06c-1.22-.19-2.56-.31-4.03-.36-1.47-.05-2.85-.02-4.13.07l.05-2.06Zm1.15-7.1c1.31-.1,2.71-.12,4.2-.07,1.49.05,2.84.15,4.06.31l-.19,2.06c-1.18-.19-2.52-.3-4.01-.34-1.49-.03-2.86-.02-4.1.05l.05-2.02Zm2.93,23.52c1.41-2.34,2.58-4.93,3.53-7.78.94-2.85,1.69-5.78,2.23-8.81.54-3.02.94-6.06,1.18-9.12.24-3.06.38-5.96.41-8.71l2.16-.05c-.03,2.82-.15,5.76-.36,8.83-.21,3.07-.59,6.14-1.15,9.22-.56,3.07-1.31,6.1-2.26,9.07-.94,2.98-2.18,5.79-3.72,8.45l-2.02-1.1Z"/>
      <path class="cls-1" d="m334.32,29.71c2.11-.93,4.1-1.98,5.98-3.14,1.87-1.17,3.5-2.35,4.9-3.55,1.39-1.2,2.5-2.36,3.31-3.48s1.22-2.1,1.22-2.93c0-.54-.3-.92-.91-1.13-.61-.21-1.34-.31-2.21-.31-.77,0-1.49.05-2.16.14-.67.1-1.34.24-2.02.43-.67.19-1.38.45-2.11.77-.74.32-1.55.7-2.45,1.15l-.91-1.82c1.22-.67,2.63-1.3,4.25-1.87,1.62-.58,3.48-.86,5.59-.86.67,0,1.32.05,1.94.14.62.1,1.16.27,1.61.53.45.26.81.61,1.08,1.06.27.45.41,1.01.41,1.68,0,1.09-.43,2.3-1.3,3.62-.86,1.33-2.06,2.68-3.58,4.06-1.52,1.38-3.29,2.72-5.3,4.03-2.02,1.31-4.18,2.48-6.48,3.5l-.86-2.02Zm13.82-4.94c.83,1.22,1.63,2.42,2.4,3.62.77,1.2,1.55,2.5,2.35,3.91l-1.82,1.06c-.77-1.38-1.53-2.67-2.28-3.89-.75-1.22-1.56-2.43-2.42-3.65l1.78-1.06Zm7.92,15.79c1.41-2.34,2.58-4.93,3.5-7.78.93-2.85,1.67-5.78,2.23-8.81.56-3.02.96-6.06,1.2-9.12.24-3.06.38-5.96.41-8.71l2.16-.05c-.03,2.82-.15,5.76-.36,8.83-.21,3.07-.59,6.14-1.15,9.22-.56,3.07-1.31,6.1-2.26,9.07-.94,2.98-2.18,5.79-3.72,8.45l-2.02-1.1Z"/>
      <path class="cls-1" d="m404.02,23.42c-1.12.67-2.39,1.26-3.82,1.75-1.42.5-2.91.9-4.46,1.22-1.55.32-3.14.56-4.75.72-1.62.16-3.18.24-4.68.24-1.02,0-2.19-.02-3.5-.07-1.31-.05-2.66-.16-4.03-.34-1.38-.18-2.74-.42-4.1-.72-1.36-.3-2.6-.7-3.72-1.18l1.06-1.87c1.06.42,2.2.76,3.43,1.03,1.23.27,2.48.5,3.74.67,1.26.18,2.5.3,3.72.38,1.22.08,2.3.12,3.26.12,3.2,0,6.22-.28,9.05-.84,2.83-.56,5.38-1.5,7.66-2.81l1.15,1.68Zm-20.02,8.45c-1.18,1.47-2.14,2.82-2.88,4.06-.74,1.23-1.1,2.6-1.1,4.1,0,1.22.5,1.99,1.49,2.33.99.34,2.38.5,4.18.5.58,0,1.26-.02,2.06-.07.8-.05,1.63-.13,2.5-.24.86-.11,1.74-.26,2.62-.43.88-.18,1.69-.41,2.42-.7l.58,2.11c-.64.26-1.42.48-2.33.67s-1.85.34-2.81.46c-.96.11-1.89.2-2.78.26-.9.06-1.65.1-2.26.1-1.18,0-2.26-.07-3.22-.22-.96-.14-1.78-.4-2.47-.77-.69-.37-1.22-.87-1.58-1.51-.37-.64-.55-1.47-.55-2.5,0-1.73.43-3.38,1.3-4.97.86-1.58,1.9-3.1,3.12-4.54l1.73,1.34Zm13.49-14.88c-1.31.54-2.69.98-4.13,1.3s-2.83.48-4.18.48c-1.18,0-2.27-.09-3.26-.26-.99-.18-1.84-.47-2.54-.89-.7-.42-1.25-.97-1.63-1.66-.38-.69-.58-1.54-.58-2.57,0-1.22.25-2.59.74-4.13.5-1.54,1.16-2.94,1.99-4.22l1.87,1.01c-.77,1.25-1.37,2.53-1.8,3.84-.43,1.31-.65,2.48-.65,3.5,0,1.18.5,2.03,1.51,2.54,1.01.51,2.42.77,4.25.77,1.22,0,2.48-.14,3.79-.41,1.31-.27,2.58-.66,3.79-1.18l.82,1.87Z"/>
      <path class="cls-1" d="m439.97,12.58c-.67.13-1.33.23-1.97.31-.64.08-1.28.15-1.92.22-2.98.8-5.34,1.7-7.1,2.69-1.76.99-2.64,2.26-2.64,3.79,0,.8.38,1.39,1.15,1.78.77.38,1.87.58,3.31.58,1.34,0,2.74-.18,4.2-.55,1.46-.37,2.78-.79,3.96-1.27l.48,2.02c-1.22.51-2.6.95-4.15,1.32-1.55.37-3.05.55-4.49.55-1.92,0-3.49-.32-4.7-.96-1.22-.64-1.82-1.79-1.82-3.46,0-1.22.43-2.37,1.3-3.46.86-1.09,2.32-2.05,4.37-2.88-1.82-.1-3.66-.4-5.52-.91l.48-1.97c1.31.38,2.56.64,3.74.77,1.18.13,2.38.19,3.6.19,1.12,0,2.29-.05,3.5-.14,1.22-.1,2.5-.29,3.84-.58l.38,1.97Zm.34-4.75c-1.15.16-2.26.3-3.31.43-1.06.13-2.11.19-3.17.19h-.94c-.3,0-.63-.02-.98-.05-1.06-.06-2.16-.17-3.31-.31-1.15-.14-2.29-.36-3.41-.65l.43-2.06c1.34.42,2.7.7,4.08.84s2.82.22,4.32.22c1.95,0,3.95-.21,6-.62l.29,2.02Zm1.92,36.05c.58-.7,1.15-1.46,1.73-2.28.58-.82,1.09-1.64,1.54-2.47.45-.83.81-1.66,1.08-2.5.27-.83.41-1.63.41-2.4,0-1.12-.42-1.87-1.25-2.26-.83-.38-2.16-.58-3.98-.58-1.15,0-2.42.1-3.79.31-1.38.21-2.7.58-3.98,1.13l-.62-2.11c1.31-.54,2.74-.93,4.27-1.15,1.54-.22,2.91-.34,4.13-.34s2.24.07,3.17.22c.93.14,1.7.4,2.33.77.62.37,1.1.88,1.42,1.54.32.66.48,1.48.48,2.47s-.17,1.94-.5,2.95c-.34,1.01-.75,1.99-1.25,2.95-.5.96-1.05,1.88-1.66,2.76-.61.88-1.18,1.66-1.73,2.33l-1.78-1.34Zm-1.82-29.47c1.09-.06,2.06-.1,2.93-.1s1.86.08,2.98.24l-.24,2.11c-1.02-.19-1.94-.28-2.74-.26-.8.02-1.74.07-2.83.17l-.1-2.16Zm3.6,10.22c.86-1.89,1.58-3.66,2.16-5.33.58-1.66,1.05-3.3,1.42-4.92.37-1.62.66-3.24.86-4.87.21-1.63.38-3.36.5-5.18l2.11.05c-.26,4.26-.8,8.09-1.63,11.5-.83,3.41-1.98,6.57-3.46,9.48l-1.97-.72Zm6.43,1.73c.93-1.92,1.71-3.82,2.35-5.71.64-1.89,1.18-3.78,1.61-5.66.43-1.89.78-3.78,1.06-5.66.27-1.89.49-3.78.65-5.66l2.06.14c-.13,2.18-.35,4.34-.67,6.5-.32,2.16-.73,4.26-1.22,6.29-.5,2.03-1.07,3.94-1.73,5.74-.66,1.79-1.37,3.38-2.14,4.75l-1.97-.72Z"/>
      <path class="cls-1" d="m494.3,32.06c-1.12.67-2.39,1.27-3.82,1.8-1.42.53-2.91.98-4.46,1.34-1.55.37-3.14.64-4.75.82-1.62.18-3.18.26-4.68.26-1.02,0-2.19-.04-3.5-.12-1.31-.08-2.66-.22-4.03-.41s-2.74-.45-4.1-.77c-1.36-.32-2.6-.72-3.72-1.2l1.06-1.97c1.06.42,2.2.78,3.43,1.08,1.23.3,2.48.56,3.74.77,1.26.21,2.5.36,3.72.46s2.3.14,3.26.14c3.2,0,6.22-.33,9.05-.98,2.83-.66,5.38-1.64,7.66-2.95l1.15,1.73Zm-26.16-9.98c1.18-.64,2.48-1.47,3.89-2.5,1.41-1.02,2.8-2.18,4.18-3.46,1.38-1.28,2.66-2.66,3.84-4.15,1.18-1.49,2.13-3,2.83-4.54l1.82.77c-.67,1.63-1.6,3.22-2.78,4.78-1.18,1.55-2.49,3.01-3.91,4.37-1.42,1.36-2.89,2.6-4.39,3.72-1.5,1.12-2.91,2.06-4.22,2.83l-1.25-1.82Zm13.44-7.01c2.02,1.38,3.72,2.78,5.11,4.22,1.39,1.44,2.65,2.83,3.77,4.18l-1.63,1.39c-1.12-1.44-2.43-2.89-3.94-4.34-1.5-1.46-3.09-2.78-4.75-3.96l1.44-1.49Z"/>
      <path class="cls-1" d="m530.5,32.06c-1.12.67-2.39,1.27-3.82,1.8-1.42.53-2.91.98-4.46,1.34-1.55.37-3.14.64-4.75.82-1.62.18-3.18.26-4.68.26-1.02,0-2.19-.04-3.5-.12-1.31-.08-2.66-.22-4.03-.41s-2.74-.45-4.1-.77c-1.36-.32-2.6-.72-3.72-1.2l1.06-1.97c1.06.42,2.2.78,3.43,1.08,1.23.3,2.48.56,3.74.77,1.26.21,2.5.36,3.72.46s2.3.14,3.26.14c3.2,0,6.22-.33,9.05-.98,2.83-.66,5.38-1.64,7.66-2.95l1.15,1.73Zm-6.05-17.28c-.42.06-.82.13-1.22.19-.4.06-.81.13-1.22.19-1.86.42-3.54.83-5.06,1.25-1.52.42-2.83.87-3.91,1.37-1.09.5-1.93,1.04-2.52,1.63-.59.59-.89,1.26-.89,1.99,0,.9.55,1.59,1.66,2.09,1.1.5,2.62.74,4.54.74.58,0,1.22-.04,1.94-.12.72-.08,1.46-.19,2.23-.34.77-.14,1.52-.32,2.26-.53.74-.21,1.39-.42,1.97-.65l.67,1.97c-.64.26-1.36.49-2.16.7-.8.21-1.62.38-2.45.53-.83.14-1.64.26-2.42.36-.79.1-1.46.14-2.04.14-1.18,0-2.28-.1-3.29-.29-1.01-.19-1.89-.49-2.64-.89-.75-.4-1.34-.91-1.75-1.54s-.62-1.35-.62-2.18c0-1.22.49-2.31,1.46-3.29s2.52-1.86,4.63-2.66c-1.76-.16-3.52-.46-5.28-.91l.43-1.97c1.31.35,2.6.6,3.86.74,1.26.14,2.54.22,3.82.22s2.47-.06,3.77-.17c1.3-.11,2.62-.31,3.96-.6l.29,2.02Zm-.1-5.23c-1.15.19-2.26.34-3.31.46-1.06.11-2.13.17-3.22.17h-.96c-.32,0-.66-.02-1.01-.05-1.06-.06-2.16-.17-3.31-.31-1.15-.14-2.29-.36-3.41-.65l.38-2.06c2.69.7,5.54,1.06,8.54,1.06.93,0,1.88-.05,2.86-.14.98-.1,2.01-.27,3.1-.53l.34,2.06Z"/>
    </g>
  </g>
</svg>